<mxfile host="Electron" modified="2023-04-17T12:32:23.612Z" agent="Mozilla/5.0 (Macintosh; Intel Mac OS X 10_15_7) AppleWebKit/537.36 (KHTML, like Gecko) draw.io/21.1.2 Chrome/106.0.5249.199 Electron/21.4.3 Safari/537.36" etag="gnYBVFgccPvkSpWBJNlc" version="21.1.2" type="device">
  <diagram name="第 1 页" id="lfrQomM0FfiI6CpS-Mqn">
    <mxGraphModel dx="2145" dy="1569" grid="1" gridSize="10" guides="1" tooltips="1" connect="1" arrows="1" fold="1" page="1" pageScale="1" pageWidth="827" pageHeight="1169" math="0" shadow="0">
      <root>
        <mxCell id="0" />
        <mxCell id="1" parent="0" />
        <mxCell id="Ff9o-YLQXDCr1V2NJKfu-2" value="总线" style="rounded=0;whiteSpace=wrap;html=1;" vertex="1" parent="1">
          <mxGeometry x="220" y="210" width="480" height="40" as="geometry" />
        </mxCell>
        <mxCell id="Ff9o-YLQXDCr1V2NJKfu-5" value="" style="edgeStyle=orthogonalEdgeStyle;rounded=0;orthogonalLoop=1;jettySize=auto;html=1;entryX=0.083;entryY=1.022;entryDx=0;entryDy=0;entryPerimeter=0;startArrow=classic;startFill=1;" edge="1" parent="1" source="Ff9o-YLQXDCr1V2NJKfu-3" target="Ff9o-YLQXDCr1V2NJKfu-2">
          <mxGeometry relative="1" as="geometry" />
        </mxCell>
        <mxCell id="Ff9o-YLQXDCr1V2NJKfu-3" value="cache" style="whiteSpace=wrap;html=1;aspect=fixed;" vertex="1" parent="1">
          <mxGeometry x="220" y="290" width="80" height="80" as="geometry" />
        </mxCell>
        <mxCell id="Ff9o-YLQXDCr1V2NJKfu-6" value="" style="edgeStyle=orthogonalEdgeStyle;rounded=0;orthogonalLoop=1;jettySize=auto;html=1;startArrow=classic;startFill=1;" edge="1" parent="1" source="Ff9o-YLQXDCr1V2NJKfu-4" target="Ff9o-YLQXDCr1V2NJKfu-3">
          <mxGeometry relative="1" as="geometry" />
        </mxCell>
        <mxCell id="Ff9o-YLQXDCr1V2NJKfu-4" value="CPU" style="ellipse;whiteSpace=wrap;html=1;" vertex="1" parent="1">
          <mxGeometry x="200" y="410" width="120" height="80" as="geometry" />
        </mxCell>
        <mxCell id="Ff9o-YLQXDCr1V2NJKfu-7" value="" style="edgeStyle=orthogonalEdgeStyle;rounded=0;orthogonalLoop=1;jettySize=auto;html=1;entryX=0.071;entryY=1.014;entryDx=0;entryDy=0;entryPerimeter=0;startArrow=classic;startFill=1;" edge="1" parent="1" source="Ff9o-YLQXDCr1V2NJKfu-8">
          <mxGeometry relative="1" as="geometry">
            <mxPoint x="390" y="251" as="targetPoint" />
          </mxGeometry>
        </mxCell>
        <mxCell id="Ff9o-YLQXDCr1V2NJKfu-8" value="cache" style="whiteSpace=wrap;html=1;aspect=fixed;" vertex="1" parent="1">
          <mxGeometry x="350" y="290" width="80" height="80" as="geometry" />
        </mxCell>
        <mxCell id="Ff9o-YLQXDCr1V2NJKfu-9" value="" style="edgeStyle=orthogonalEdgeStyle;rounded=0;orthogonalLoop=1;jettySize=auto;html=1;startArrow=classic;startFill=1;" edge="1" parent="1" source="Ff9o-YLQXDCr1V2NJKfu-10" target="Ff9o-YLQXDCr1V2NJKfu-8">
          <mxGeometry relative="1" as="geometry" />
        </mxCell>
        <mxCell id="Ff9o-YLQXDCr1V2NJKfu-10" value="CPU" style="ellipse;whiteSpace=wrap;html=1;" vertex="1" parent="1">
          <mxGeometry x="330" y="410" width="120" height="80" as="geometry" />
        </mxCell>
        <mxCell id="Ff9o-YLQXDCr1V2NJKfu-11" value="" style="edgeStyle=orthogonalEdgeStyle;rounded=0;orthogonalLoop=1;jettySize=auto;html=1;entryX=0.071;entryY=1.014;entryDx=0;entryDy=0;entryPerimeter=0;startArrow=classic;startFill=1;" edge="1" parent="1" source="Ff9o-YLQXDCr1V2NJKfu-12">
          <mxGeometry relative="1" as="geometry">
            <mxPoint x="520" y="250" as="targetPoint" />
          </mxGeometry>
        </mxCell>
        <mxCell id="Ff9o-YLQXDCr1V2NJKfu-12" value="cache" style="whiteSpace=wrap;html=1;aspect=fixed;" vertex="1" parent="1">
          <mxGeometry x="480" y="289" width="80" height="80" as="geometry" />
        </mxCell>
        <mxCell id="Ff9o-YLQXDCr1V2NJKfu-13" value="" style="edgeStyle=orthogonalEdgeStyle;rounded=0;orthogonalLoop=1;jettySize=auto;html=1;startArrow=classic;startFill=1;" edge="1" parent="1" source="Ff9o-YLQXDCr1V2NJKfu-14" target="Ff9o-YLQXDCr1V2NJKfu-12">
          <mxGeometry relative="1" as="geometry" />
        </mxCell>
        <mxCell id="Ff9o-YLQXDCr1V2NJKfu-14" value="CPU" style="ellipse;whiteSpace=wrap;html=1;" vertex="1" parent="1">
          <mxGeometry x="460" y="409" width="120" height="80" as="geometry" />
        </mxCell>
        <mxCell id="Ff9o-YLQXDCr1V2NJKfu-15" value="" style="edgeStyle=orthogonalEdgeStyle;rounded=0;orthogonalLoop=1;jettySize=auto;html=1;entryX=0.071;entryY=1.014;entryDx=0;entryDy=0;entryPerimeter=0;startArrow=classic;startFill=1;" edge="1" parent="1" source="Ff9o-YLQXDCr1V2NJKfu-16">
          <mxGeometry relative="1" as="geometry">
            <mxPoint x="650" y="251" as="targetPoint" />
          </mxGeometry>
        </mxCell>
        <mxCell id="Ff9o-YLQXDCr1V2NJKfu-16" value="cache" style="whiteSpace=wrap;html=1;aspect=fixed;" vertex="1" parent="1">
          <mxGeometry x="610" y="290" width="80" height="80" as="geometry" />
        </mxCell>
        <mxCell id="Ff9o-YLQXDCr1V2NJKfu-17" value="" style="edgeStyle=orthogonalEdgeStyle;rounded=0;orthogonalLoop=1;jettySize=auto;html=1;startArrow=classic;startFill=1;" edge="1" parent="1" source="Ff9o-YLQXDCr1V2NJKfu-18" target="Ff9o-YLQXDCr1V2NJKfu-16">
          <mxGeometry relative="1" as="geometry" />
        </mxCell>
        <mxCell id="Ff9o-YLQXDCr1V2NJKfu-18" value="CPU" style="ellipse;whiteSpace=wrap;html=1;" vertex="1" parent="1">
          <mxGeometry x="590" y="410" width="120" height="80" as="geometry" />
        </mxCell>
        <mxCell id="Ff9o-YLQXDCr1V2NJKfu-20" value="" style="edgeStyle=orthogonalEdgeStyle;rounded=0;orthogonalLoop=1;jettySize=auto;html=1;startArrow=classic;startFill=1;" edge="1" parent="1" source="Ff9o-YLQXDCr1V2NJKfu-19" target="Ff9o-YLQXDCr1V2NJKfu-2">
          <mxGeometry relative="1" as="geometry" />
        </mxCell>
        <mxCell id="Ff9o-YLQXDCr1V2NJKfu-19" value="cache" style="whiteSpace=wrap;html=1;aspect=fixed;" vertex="1" parent="1">
          <mxGeometry x="420" y="70" width="80" height="80" as="geometry" />
        </mxCell>
      </root>
    </mxGraphModel>
  </diagram>
</mxfile>
